<?xml version="1.0" encoding="utf-8"?>
<!-- Generator: Adobe Illustrator 21.1.0, SVG Export Plug-In . SVG Version: 6.00 Build 0)  -->
<svg version="1.1" id="Layer_1" xmlns="http://www.w3.org/2000/svg" xmlns:xlink="http://www.w3.org/1999/xlink" x="0px" y="0px"
	 viewBox="0 0 544 10" style="enable-background:new 0 0 544 10;" xml:space="preserve">
<style type="text/css">
	.st0{fill:none;stroke:#56554F;stroke-linecap:round;stroke-miterlimit:10;}
</style>
<polyline class="st0" points="1.4,2.9 8.1,6.1 14.7,2.9 21.4,6.1 28,2.9 34.7,6.1 41.3,2.9 47.9,6.1 54.6,2.9 61.2,6.1 67.9,2.9 
	74.5,6.1 81.1,2.9 87.8,6.1 94.4,2.9 101.1,6.1 107.7,2.9 114.4,6.1 121,2.9 127.6,6.1 134.3,2.9 140.9,6.1 147.6,2.9 154.2,6.1 
	160.9,2.9 167.5,6.1 174.2,2.9 180.8,6.1 187.4,2.9 194.1,6.1 200.7,2.9 207.4,6.1 214,2.9 220.7,6.1 227.3,2.9 233.9,6.1 
	240.6,2.9 247.2,6.1 253.9,2.9 260.5,6.1 267.2,2.9 273.8,6.1 280.5,2.9 287.1,6.1 293.8,2.9 300.4,6.1 307,2.9 313.7,6.1 
	320.3,2.9 327,6.1 333.6,2.9 340.3,6.1 346.9,2.9 353.6,6.1 360.2,2.9 366.8,6.1 373.5,2.9 380.1,6.1 386.8,2.9 393.4,6.1 
	400.1,2.9 406.7,6.1 413.4,2.9 420,6.1 426.6,2.9 433.3,6.1 439.9,2.9 446.6,6.1 453.2,2.9 459.9,6.1 466.5,2.9 473.2,6.1 
	479.8,2.9 486.5,6.1 493.1,2.9 499.8,6.1 506.4,2.9 513.1,6.1 519.7,2.9 526.4,6.1 533,2.9 539.7,6.1 "/>
</svg>
